<?xml version="1.0" encoding="UTF-8" standalone="no"?>
<!DOCTYPE svg PUBLIC "-//W3C//DTD SVG 1.1//EN" "http://www.w3.org/Graphics/SVG/1.1/DTD/svg11.dtd">
<svg width="100%" height="100%" viewBox="0 0 436 139" version="1.1" xmlns="http://www.w3.org/2000/svg" xmlns:xlink="http://www.w3.org/1999/xlink" xml:space="preserve" xmlns:serif="http://www.serif.com/" style="fill-rule:evenodd;clip-rule:evenodd;stroke-linejoin:round;stroke-miterlimit:2;">
    <g transform="matrix(1,0,0,1,0.0001,-0.0001)">
        <g>
            <g transform="matrix(1,0,0,1,-53.9675,-112.237)">
                <path d="M459.755,214.434C459.981,213.417 460.548,212.507 461.362,211.857C462.146,211.181 463.145,210.805 464.18,210.796L475.003,210.796C476.041,210.778 477.04,210.391 477.821,209.705C478.647,209.047 479.224,208.127 479.459,207.098L479.459,207.037C479.71,206.141 479.505,205.178 478.913,204.461C478.359,203.739 477.487,203.332 476.579,203.369L465.756,203.369C462.622,203.4 459.6,204.551 457.239,206.613C454.755,208.58 453.021,211.341 452.329,214.433L446.994,239.653C446.257,242.361 446.842,245.264 448.57,247.475C450.279,249.642 452.936,250.852 455.693,250.718L466.515,250.718C468.638,250.605 470.452,249.112 470.971,247.05L470.971,246.99C471.215,246.084 471.012,245.115 470.426,244.383C469.872,243.662 468.999,243.254 468.091,243.291L457.269,243.291C456.366,243.34 455.493,242.944 454.935,242.231C454.364,241.504 454.173,240.546 454.42,239.654L456.3,230.743L470.759,230.743C471.793,230.727 472.79,230.352 473.578,229.682C474.403,229.024 474.98,228.104 475.215,227.075L475.215,227.015C475.458,226.109 475.255,225.139 474.669,224.408C474.105,223.702 473.237,223.307 472.335,223.347L457.876,223.347L459.755,214.434ZM434.11,207.037C434.353,206.136 434.162,205.171 433.594,204.431C433.016,203.727 432.14,203.333 431.23,203.369L431.139,203.369C430.114,203.382 429.125,203.759 428.35,204.431C427.51,205.081 426.921,206.002 426.683,207.037L419.772,239.653C419.035,242.361 419.62,245.264 421.348,247.475C423.057,249.642 425.715,250.852 428.471,250.718L437.293,250.718C439.428,250.619 441.258,249.123 441.779,247.05L441.779,246.99C442.023,246.084 441.82,245.115 441.233,244.383C440.67,243.657 439.787,243.249 438.869,243.291L430.049,243.291C429.145,243.34 428.272,242.944 427.714,242.231C427.144,241.503 426.952,240.546 427.199,239.654L434.11,207.037ZM398.766,235.561C403.321,235.521 407.713,233.841 411.133,230.833C414.774,227.998 417.307,223.974 418.288,219.466C419.237,215.019 418.469,211.22 415.984,208.068C413.518,204.935 410.062,203.369 405.617,203.369C401.068,203.415 396.681,205.082 393.25,208.068C389.617,210.923 387.087,214.953 386.095,219.466L380.245,247.05C379.994,247.946 380.198,248.91 380.791,249.627C381.344,250.348 382.216,250.756 383.125,250.718L383.215,250.718C385.339,250.605 387.153,249.112 387.672,247.05L390.096,235.561L398.766,235.561ZM393.522,219.466C394.043,217.034 395.394,214.858 397.341,213.311C399.199,211.691 401.576,210.788 404.041,210.766C406.21,210.658 408.301,211.608 409.648,213.311C410.974,215.067 411.421,217.338 410.861,219.466C410.343,221.89 408.991,224.058 407.042,225.589C405.184,227.209 402.807,228.112 400.342,228.135L391.673,228.135L393.522,219.466ZM358.481,210.766C362.987,210.766 366.493,212.352 369,215.525C371.485,218.697 372.253,222.537 371.303,227.044C370.318,231.607 367.764,235.684 364.088,238.563C360.613,241.578 356.172,243.256 351.57,243.291C347.084,243.291 343.587,241.715 341.082,238.563C338.595,235.39 337.827,231.55 338.778,227.044C339.762,222.48 342.316,218.403 345.992,215.524C349.451,212.496 353.884,210.807 358.481,210.766L358.481,210.766ZM360.057,203.369C353.53,203.369 347.457,205.683 341.839,210.312C336.513,214.505 332.804,220.422 331.351,227.044C329.957,233.571 331.088,239.149 334.746,243.777C338.383,248.404 343.466,250.718 349.994,250.718C356.52,250.718 362.603,248.404 368.242,243.777C373.568,239.582 377.277,233.666 378.73,227.044C380.123,220.517 378.991,214.939 375.335,210.311C371.676,205.684 366.584,203.37 360.057,203.369L360.057,203.369ZM311.798,214.434C312.025,213.417 312.592,212.508 313.406,211.857C314.19,211.181 315.189,210.805 316.224,210.796L327.047,210.796C328.085,210.778 329.084,210.391 329.865,209.705C330.691,209.047 331.268,208.127 331.503,207.098L331.503,207.037C331.753,206.142 331.549,205.178 330.957,204.461C330.403,203.74 329.531,203.332 328.623,203.369L317.8,203.369C314.666,203.401 311.643,204.552 309.282,206.613C306.798,208.58 305.064,211.342 304.372,214.433L299.037,239.653C298.3,242.361 298.885,245.264 300.614,247.475C302.322,249.642 304.98,250.852 307.737,250.718L318.558,250.718C320.681,250.605 322.495,249.112 323.014,247.05L323.014,246.99C323.259,246.085 323.056,245.115 322.469,244.383C321.915,243.662 321.043,243.254 320.134,243.292L309.313,243.292C308.409,243.34 307.537,242.944 306.979,242.232C306.408,241.504 306.217,240.546 306.464,239.654L308.344,230.743L322.802,230.743C323.837,230.727 324.834,230.352 325.622,229.682C326.447,229.024 327.024,228.104 327.259,227.075L327.259,227.015C327.502,226.11 327.299,225.14 326.713,224.408C326.149,223.702 325.281,223.307 324.379,223.347L309.92,223.347L311.798,214.434ZM278.335,235.562C282.89,235.521 287.281,233.842 290.702,230.833C294.342,227.998 296.875,223.974 297.856,219.466C298.805,215.02 298.037,211.22 295.551,208.069C293.087,204.936 289.631,203.369 285.184,203.369C280.635,203.415 276.249,205.082 272.817,208.069C269.184,210.923 266.654,214.953 265.663,219.466L259.813,247.05C259.561,247.946 259.765,248.91 260.359,249.627C260.912,250.349 261.785,250.756 262.693,250.718L262.784,250.718C264.907,250.605 266.721,249.112 267.24,247.05L269.665,235.562L278.335,235.562ZM273.09,219.466C273.611,217.034 274.961,214.858 276.909,213.311C278.766,211.691 281.143,210.788 283.608,210.766C285.777,210.658 287.869,211.608 289.215,213.311C290.542,215.067 290.99,217.338 290.428,219.466C289.911,221.89 288.559,224.057 286.61,225.589C284.753,227.209 282.375,228.112 279.911,228.135L271.241,228.135L273.09,219.466ZM232.137,234.501L248.355,213.311L243.868,234.501L232.137,234.501ZM223.771,234.379C223.354,234.89 223.063,235.493 222.923,236.138L222.468,238.26C222.236,239.156 222.438,240.111 223.013,240.836C223.582,241.555 224.461,241.961 225.378,241.927L242.292,241.927L241.201,247.05C240.949,247.945 241.153,248.91 241.747,249.627C242.3,250.348 243.172,250.756 244.081,250.718L244.172,250.718C246.295,250.605 248.109,249.112 248.628,247.05L249.719,241.927L253.205,241.927C254.245,241.916 255.247,241.528 256.024,240.836C256.85,240.197 257.42,239.283 257.631,238.26L257.661,238.198C257.884,237.296 257.695,236.34 257.145,235.592C256.582,234.866 255.699,234.458 254.781,234.501L251.295,234.501L257.115,207.037C257.359,206.136 257.168,205.171 256.6,204.431C256.022,203.727 255.146,203.334 254.236,203.369L249.689,203.369C248.251,203.361 246.898,204.065 246.081,205.249L223.771,234.379ZM205.614,214.434C205.84,213.417 206.407,212.508 207.22,211.857C208.005,211.181 209.004,210.805 210.04,210.796L220.861,210.796C221.9,210.778 222.9,210.391 223.68,209.705C224.506,209.047 225.083,208.127 225.317,207.098L225.317,207.037C225.568,206.142 225.364,205.178 224.772,204.461C224.218,203.739 223.346,203.331 222.437,203.369L211.616,203.369C208.481,203.4 205.459,204.551 203.098,206.613C200.614,208.58 198.879,211.341 198.187,214.433L192.852,239.653C192.115,242.361 192.7,245.264 194.428,247.475C196.137,249.642 198.795,250.852 201.552,250.718L212.374,250.718C214.497,250.605 216.311,249.112 216.83,247.05L216.83,246.99C217.073,246.084 216.87,245.115 216.284,244.383C215.73,243.662 214.858,243.254 213.95,243.291L203.128,243.291C202.224,243.34 201.352,242.944 200.794,242.231C200.223,241.503 200.032,240.546 200.279,239.654L202.158,230.743L216.617,230.743C217.651,230.727 218.648,230.352 219.436,229.682C220.261,229.024 220.839,228.104 221.073,227.075L221.073,227.015C221.317,226.109 221.114,225.139 220.527,224.408C219.964,223.702 219.096,223.307 218.194,223.347L203.735,223.347L205.614,214.434ZM167.844,205.855C167.775,204.459 166.607,203.348 165.208,203.348C165.097,203.348 164.985,203.355 164.874,203.369L164.662,203.369C162.551,203.433 160.725,204.899 160.206,206.946C160.104,207.374 160.094,207.818 160.176,208.25L164.298,247.171C164.743,249.535 166.218,250.717 168.724,250.718C171.209,250.741 173.507,249.369 174.665,247.171L195.368,208.25C195.593,207.849 195.766,207.421 195.884,206.977C196.027,206.265 195.92,205.526 195.581,204.885C195.088,203.882 194.027,203.279 192.913,203.369L192.701,203.369C191.006,203.343 189.447,204.32 188.73,205.855L171.027,240.018L167.844,205.855ZM152.355,203.369C151.329,203.382 150.341,203.759 149.566,204.431C148.726,205.081 148.137,206.002 147.899,207.037L139.411,247.05C139.159,247.946 139.364,248.91 139.957,249.627C140.511,250.349 141.383,250.756 142.291,250.718L142.382,250.718C144.505,250.606 146.32,249.112 146.838,247.05L155.325,207.037C155.569,206.136 155.378,205.171 154.81,204.431C154.232,203.727 153.356,203.334 152.446,203.369L152.355,203.369ZM125.952,247.05C125.7,247.946 125.905,248.91 126.498,249.627C127.052,250.349 127.924,250.756 128.832,250.718L128.893,250.718C131.016,250.605 132.83,249.112 133.349,247.05L134.531,241.443C135.42,237.259 134.702,233.692 132.378,230.743L131.803,229.985L132.651,229.257C136.08,226.586 138.472,222.8 139.411,218.556C140.301,214.373 139.573,210.797 137.229,207.826C134.892,204.849 131.248,203.185 127.468,203.37L123.528,203.37C120.178,203.406 116.95,204.643 114.434,206.856C111.766,208.935 109.909,211.886 109.19,215.192L102.43,247.05C102.178,247.946 102.382,248.91 102.975,249.627C103.517,250.363 104.398,250.774 105.31,250.718L105.37,250.718C106.419,250.704 107.429,250.317 108.219,249.627C109.032,248.976 109.599,248.067 109.826,247.05L112.645,233.712L121.587,233.712C123.334,233.747 124.974,234.573 126.043,235.955C127.244,237.512 127.648,239.545 127.134,241.443L125.952,247.05ZM114.221,226.286L116.525,215.464C116.59,215.101 116.692,214.746 116.828,214.403C117.731,212.144 119.975,210.692 122.406,210.796L125.892,210.796C127.82,210.7 129.682,211.535 130.893,213.039C132.097,214.606 132.511,216.643 132.015,218.556C131.531,220.728 130.31,222.668 128.559,224.043C126.897,225.472 124.78,226.267 122.588,226.286L114.221,226.286ZM78.301,203.369C75.893,203.393 73.571,204.275 71.754,205.855C69.815,207.37 68.463,209.515 67.935,211.918L61.508,242.17C60.95,244.263 61.411,246.5 62.751,248.202C64.062,249.879 66.11,250.818 68.237,250.718L72.815,250.718C79.341,250.718 85.414,248.404 91.032,243.777C96.359,239.582 100.067,233.666 101.521,227.044C102.915,220.517 101.783,214.939 98.126,210.312C94.488,205.684 89.405,203.37 82.878,203.369L78.301,203.369ZM75.361,211.918C75.421,211.596 75.593,211.306 75.847,211.1C76.089,210.884 76.402,210.766 76.726,210.766L81.303,210.766C85.809,210.766 89.315,212.352 91.821,215.524C94.307,218.697 95.075,222.537 94.125,227.044C93.139,231.607 90.586,235.684 86.91,238.562C83.434,241.578 78.993,243.256 74.391,243.291L69.814,243.291C69.529,243.307 69.251,243.196 69.056,242.988C68.91,242.742 68.867,242.448 68.934,242.17L75.361,211.918Z" style="fill-rule:nonzero;"/>
            </g>
            <g transform="matrix(1,0,0,1,-53.9675,-112.237)">
                <path d="M489.8,191.425C489.453,190.485 489.049,189.567 488.589,188.677C486.111,184.448 482.421,181.485 478.425,178.964C470.245,173.807 461.251,170.644 452.04,168.134C436.937,164.111 421.495,161.495 405.911,160.317C389.66,158.991 373.373,158.073 357.092,157.263C343.191,156.572 329.275,156.169 315.364,155.846C283.7,155.112 252.035,154.451 220.369,153.861C197.895,153.428 175.42,153.143 152.95,152.722C134.194,152.37 115.438,152.009 96.689,151.48C83.42,151.105 70.154,150.865 56.841,148.962L56.444,148.905L56.312,149.284C55.635,151.224 54.941,153.214 54.157,155.462L53.967,156.005L54.534,156.103C56.072,156.452 57.63,156.711 59.198,156.879C69.247,157.388 79.307,158.083 89.387,158.238C110.672,158.565 131.959,158.619 153.242,158.748C194.992,159 236.742,159.11 278.487,159.515C297.678,159.701 316.871,160.29 336.056,160.982C355.111,161.67 374.158,162.646 393.205,163.627C411.869,164.588 430.392,166.634 448.601,170.919C457.91,173.109 466.988,175.906 475.362,180.539C480.281,183.259 484.813,186.31 487.323,191.503C487.488,191.793 487.745,192.019 488.053,192.147C488.307,192.272 488.554,192.37 488.704,192.463L489.042,192.667L489.312,192.378C489.445,192.236 489.577,192.094 489.709,191.952L489.927,191.719L489.8,191.425Z" style="fill-rule:nonzero;"/>
            </g>
            <g transform="matrix(1,0,0,1,-53.9675,-112.237)">
                <path d="M371.073,182.953C357.18,179.868 343.083,177.796 328.89,176.752C316.919,175.784 304.93,175.05 292.924,174.552C281.982,174.087 271.026,173.932 260.08,173.861C250.384,173.798 240.684,173.923 230.992,174.172C216.848,174.534 202.712,175.081 188.576,175.549L188.109,175.565L188.105,176.032C188.104,176.17 188.103,176.307 188.102,176.443L188.098,176.915L188.569,176.935C249.753,179.478 310.937,182.022 372.121,184.566L372.541,184.584L372.62,184.171L372.678,183.871L372.761,183.434L372.333,183.311C371.935,183.198 371.52,183.057 371.073,182.953Z" style="fill-rule:nonzero;"/>
            </g>
            <g transform="matrix(1,0,0,1,-53.9675,-112.237)">
                <path d="M83.689,128.587C88.096,129.071 92.536,129.8 97.02,129.886C97.787,129.901 98.554,129.908 99.321,129.908C110.123,129.908 120.814,128.507 131.475,127.165C149.829,124.852 168.178,122.51 185.985,120.25L186.797,120.147L187.043,120.145C187.223,120.136 187.402,120.128 187.582,120.119C188.311,120.106 189.039,120.057 189.764,119.97C191.942,119.74 194.121,119.51 196.3,119.281L202.133,118.665C202.949,118.579 203.791,118.445 204.634,118.345C204.736,118.344 204.838,118.34 204.939,118.337C205.487,118.323 206.036,118.308 206.584,118.294L207.515,118.27C207.742,118.264 207.968,118.252 208.194,118.232L208.318,118.232C208.585,118.232 208.778,118.235 208.95,118.235C209.053,118.235 209.148,118.234 209.245,118.23C222.707,117.738 236.157,117.031 249.606,116.809C250.483,116.795 251.36,116.788 252.236,116.788C266.053,116.834 279.815,118.543 293.224,121.875C293.284,121.89 293.344,121.887 293.404,121.896C293.463,121.925 293.525,121.946 293.59,121.956C293.745,121.996 293.899,122.038 294.053,122.079C294.362,122.16 294.67,122.242 294.98,122.324C295.596,122.487 296.214,122.65 296.832,122.814C297.526,122.997 298.221,123.181 298.916,123.365C300.081,123.615 301.22,123.973 302.318,124.436C302.589,124.562 302.866,124.673 303.149,124.769C322.217,130.744 339.596,139.814 354.855,152.802C355.722,153.377 356.663,153.83 357.653,154.15L358.061,154.338L358.281,153.946C358.401,153.734 358.521,153.52 358.642,153.306L358.832,152.968L358.546,152.707C357.131,151.416 355.755,150.043 354.244,148.797C344.603,140.837 334.02,134.091 322.733,128.714C305.513,120.452 286.967,115.298 267.954,113.49C257.109,112.468 246.175,112.368 235.297,112.247C234.693,112.24 234.088,112.237 233.484,112.237C226.702,112.237 219.927,112.633 213.168,112.923C204.627,112.719 196.104,113.691 187.615,114.668L184.886,114.982L183.199,115.119L181.986,115.217C181.859,115.206 181.731,115.199 181.601,115.199C181.306,115.202 181.01,115.221 180.717,115.256C171.284,116.317 161.843,117.316 152.403,118.324C141.335,119.507 130.282,120.792 119.21,121.818C112.895,122.403 106.587,123.02 100.292,123.02C94.695,123.088 89.111,122.458 83.669,121.144L83.248,121.038L83.094,121.444C82.4,123.28 81.715,125.09 80.924,127.182L80.744,127.659L81.229,127.817C82.022,128.152 82.846,128.409 83.689,128.587Z" style="fill-rule:nonzero;"/>
            </g>
            <g transform="matrix(1,0,0,1,-53.9675,-112.237)">
                <path d="M59.365,160.569L58.933,160.569L58.862,161.158L58.803,161.647L59.292,161.701C66.179,162.468 73.079,163.236 80.384,164.05C78.095,166.269 75.341,167.951 72.323,168.976C69.086,170.015 65.77,170.793 62.409,171.303L57.856,172.14L62.483,172.27C63.037,172.285 63.59,172.293 64.142,172.294C69.884,172.294 75.479,171.385 80.52,168.208C83.289,166.706 85.377,164.196 86.35,161.2L86.545,160.569L59.365,160.569L59.365,160.569Z" style="fill-rule:nonzero;"/>
            </g>
            <g transform="matrix(1,0,0,1,-53.9675,-112.237)">
                <path d="M101.337,134.562C94.295,138.308 87.742,142.908 81.826,148.258L80.956,149.096L82.164,149.096C82.994,149.096 83.648,149.053 84.198,149.053C84.502,149.049 84.805,149.069 85.106,149.113C85.376,149.157 85.65,149.18 85.924,149.181C86.625,149.185 87.315,149.009 87.929,148.67C88.546,148.312 89.105,147.862 89.585,147.334C91.435,145.405 93.445,143.637 95.593,142.047C99.452,139.193 103.464,136.527 107.426,133.774L108.368,133.12L107.243,132.896C107.046,132.858 106.846,132.84 106.646,132.842C104.778,133.048 102.971,133.634 101.337,134.562Z" style="fill-rule:nonzero;"/>
            </g>
            <g transform="matrix(1,0,0,1,-53.9675,-112.237)">
                <path d="M452.53,182.134C454.725,180.594 456.766,179.162 458.798,177.736L459.173,177.473L458.933,177.082C458.855,176.955 458.777,176.829 458.701,176.705L458.477,176.339L458.085,176.516L446.996,181.516L446.366,181.8L446.846,182.298C448.404,183.73 450.214,184.86 452.185,185.632C459.657,188.637 467.596,190.319 475.645,190.603C476.417,190.609 477.189,190.569 477.956,190.483L481.609,190.045L477.968,189.517C468.901,188.204 460.435,186.535 452.53,182.134Z" style="fill-rule:nonzero;"/>
            </g>
        </g>
    </g>
</svg>
